<svg id="Layer_1" xmlns="http://www.w3.org/2000/svg" viewBox="0 0 512 512"><style>.st0{fill:#FFFFFF;}</style><path class="st0" d="M255.5 442.5c16-78 0-234.8 0-234.8s-16 156.7 0 234.8zM193.4 199s8 18.5 24.6 30.2c6.8-48 34-88 34-88s-6.4-5.4-12-30c-17-9.8-22-40.6-22-40.6-31.4 22.7-4.3 39.5-4.3 39.5s-6.6 22.6 5.7 17 3.2 23 3.2 23c-15.6 9-5.3 18.3-5.3 18.3-3.6 27-24 30.8-24 30.8zM184.8 118.5c-13 9.8-25.8 13-46 11.7 0 0-.7 28.3 13.4 27.7s-3 11.6-3 11.6-22.8 15.4-26-19.7c-20.2 49.7-46.6 129-49 164s-34.5 40-32 69c12.2-10 45.4-42.5 47.2-52.4.7-4-10-30.6 1-49 16.5-28 23.4-64.8 29.7-91.8 5.6 13.5 22.2 23.4 33.3 3.7-37 86-43.6 142.6-104 196 5 44.4 47.4 25.3 77.6-55.8s42.3-162.3 42.3-162.3 29 3 15.5-53z"/><path class="st0" d="M46.6 348.7c15.7-5 29-24 19.4-63S46.2 260 46.2 260c-12.8 19.3 9 39 .4 88.7zM317.6 199s-20.3-3.6-24-30.6c0 0 10.3-9.2-5.3-18.4 0 0-9-28.7 3.2-23 12.3 5.7 5.7-16.8 5.7-16.8s27-16.8-4.3-39.5c0 0-5 30.7-22.2 40.6-5.5 24.6-11.8 30-11.8 30s27.2 40 34 88c16.6-11.8 24.6-30.2 24.6-30.2zM421.5 330.6c1.8 9.8 35 42.4 47.3 52.3 2.5-29-29.5-34-32-69s-29-114.3-49.2-164c-3 35-25.8 19.6-25.8 19.6s-17.2-12.3-3-11.7S372 130 372 130c-20.3 1.2-33.2-1.8-46-11.7-13.6 56 15.3 53 15.3 53s12.3 81 42.4 162.2c30 81 72.4 100.2 77.4 56-60.2-53.6-67-110-104-196.2 11.2 19.7 27.8 9.8 33.3-3.7 6.3 27 13.2 64 29.8 92 11 18.2.2 45 1 48.8z"/><path class="st0" d="M464.4 348.7c-8.6-49.8 13.2-69.5.4-88.8 0 0-10.3-13.3-19.8 25.7s3.7 58 19.4 63zM182.5 336.3c7 1.2 34.8-66.5 36-92.2-25.7 51.8-40.5 52.6-36 92.3zM328.4 336.3c4.5-39.8-10.2-40.6-36-92.2 1.2 26 29 93.6 36 92.3z"/></svg>