<svg id="Layer_1" xmlns="http://www.w3.org/2000/svg" viewBox="0 0 512 512"><style>.st0{fill:#FFFFFF;}</style><path class="st0" d="M199.7 257.3v1.5h-7.5V271h9.2c6.2 24.2 28 42.2 54.2 42.2s48-18 54.2-42.2h9.2v-12.3h-7.5v-1.5c0-30.8-25-56-56-56s-55.8 25.2-55.8 56zm14.6 13.7h13c4.4 8.7 12.5 15.2 22.2 17v12.4c-16.5-2.3-30-14-35.2-29.4zm22.2-13.7c0-10.6 8.6-19.2 19.2-19.2s19.2 8.7 19.2 19.3c0 .5 0 1-.2 1.5h-38.3v-1.5zM269 271c-2 2-4.5 3.5-7.2 4.4V271h7.2zm-19.5 0v4.4c-2.7-1-5.2-2.4-7.2-4.4h7.2zm12.3 29.4V288c9.8-1.8 18-8.3 22-17H297c-5 15.5-18.6 27-35.2 29.4zm-6-86.8c24 0 43.5 19.6 43.5 43.6v1.5H287l.2-1.5c0-17.4-14-31.5-31.5-31.5s-31.5 14-31.5 31.5v1.5h-12v-1.5c-.2-24 19.4-43.6 43.5-43.6z"/><path class="st0" d="M402 207.5l44.8-82.7h-73.2l-68 72.5s43.7 59.6 0 128.5l60 60.2H444v-26.4L401.8 307v-99.5zM298.6 134.6L341 140l18.4-15.3-8.6-13.5-60.2-2.6-29 37 19.4 3.7zM430.5 57.7l-67.4 48 55.5 3zM268.5 370H243l-12.7-9.2-58 56.5H224l9.7 8.6h44l9.7-8.7h51.8L281 360.8zM350.2 413l26 8 38 34.5 3.6-26.5-16-24zM67.3 359.6V386h78.4l60-60.2c-43.7-69 0-128.5 0-128.5l-68-72.5h-73l44.8 82.7V307l-42.2 52.6zM212.8 134.6l17.5 14.7 19.4-3.7-29-37-60.2 2.6-8.6 13.5 18.4 15.4zM148.2 105.7L81 57.7l12 51zM93.5 429l3.7 26.5 38-34.5 26-8-51.7-8z"/></svg>