<svg id="Layer_1" xmlns="http://www.w3.org/2000/svg" viewBox="0 0 512 512"><style>.st0{fill:#FFFFFF;}</style><path class="st0" d="M368 428.2c60.8-36.5 101.5-103 101.5-179.2 0-115.3-93.5-208.8-208.8-208.8-57.7 0-110 23.4-147.7 61.2-4 4-7.8 8.2-11.4 12.5l-59-75.7v41l43.6 55.2C64.5 167.5 52 206.7 52 249c0 42.7 12.7 82.4 34.7 115.5-12-22.8-19-48.8-19-76.3 0-45.3 18.5-86.2 48.2-116l143 181.3-23 20.8 21.4 23.5 21.2-19.3 76.2 96.6 16.4-15.5-75.4-96.7 22.6-20.5L297 319l-20.8 18.8-141.6-181.6c4.5-3.3 9-6.4 14-9.2 24.3-14.4 52.8-22.7 83.2-22.7 90.5 0 164 73.4 164 164 0 44.8-18 85.4-47.4 115l19.5 25zM255 381l-2.5-2.7 15-13.7 2.4 3-15 13.4zm44.4-45.3l2.5 2.7-14.8 13.4-2.3-3 14.4-13z"/></svg>