<svg id="Layer_1" xmlns="http://www.w3.org/2000/svg" viewBox="0 0 512 512"><style>.st0{fill:#FFFFFF;}</style><path class="st0" d="M63.8 409.8l.8-31.2 78.7-74.6 4-36 10-19.7 1.6-27L312 73.6l12.4-39.3 10-10L344.8 45l82.7 75.4-16.4 18-20.5 6.6-73.7 76.2-2.4 7.4-7.4 20.5v17.3l131.2-137 9.8 10.8-145 150-6.6-34.3-41 44.2-7.4 41.7-16.4 5 55.8 54-14.8 11.5-51.4-53 15.7 5.7 44.5 40.4-30.8 23.2-59-61.5 23.7-20.3-113 109-11.6-11.5L203 334.4l16.5 9-4-63-16.5-19.8L347.4 117 317 84.5 178.6 221.2l-7.3 39.4L200 290l1.5 18L77 432.8z"/><path class="st0" d="M152.6 227.2l-2.4 25.2-15.4 12L115 245l17-18.4zM407 86.4l30.6 34.7-5.3-34.6 6-11.4-16-13z"/></svg>