<?xml version="1.0" standalone="no"?>
<!DOCTYPE svg PUBLIC "-//W3C//DTD SVG 20010904//EN"
 "http://www.w3.org/TR/2001/REC-SVG-20010904/DTD/svg10.dtd">
<svg version="1.0" xmlns="http://www.w3.org/2000/svg"
 width="512.000000pt" height="512.000000pt" viewBox="0 0 512.000000 512.000000"
 preserveAspectRatio="xMidYMid meet">
<metadata>
Created by potrace 1.11, written by Peter Selinger 2001-2013
</metadata>
<g transform="translate(0.000000,512.000000) scale(0.100000,-0.100000)"
fill="#000000" stroke="none">
<path d="M3925 4453 c-557 -56 -1382 -400 -2248 -938 -49 -31 -128 -81 -176
-113 l-88 -59 -24 20 c-24 19 -178 159 -208 188 -9 8 -39 37 -68 63 l-52 48
-128 -27 c-70 -14 -144 -30 -163 -35 -19 -5 -46 -11 -60 -14 -277 -53 -346
-74 -515 -152 -94 -44 -176 -83 -182 -87 -9 -5 7 -26 50 -66 34 -31 130 -120
212 -196 187 -174 599 -585 726 -725 122 -133 288 -333 359 -430 30 -41 57
-77 61 -80 11 -10 147 -215 195 -296 l48 -82 66 58 c117 103 182 145 322 210
37 17 115 62 175 102 160 105 276 158 400 183 32 6 32 6 47 -47 28 -100 39
-255 25 -351 -13 -94 -20 -120 -46 -187 -75 -188 -211 -310 -428 -385 -52 -18
-55 -13 -8 16 146 89 273 239 329 389 38 103 53 276 33 386 -19 105 -21 107
-55 76 -27 -26 -102 -74 -149 -97 -22 -11 -42 -22 -45 -25 -3 -3 -34 -19 -70
-34 -130 -57 -157 -70 -277 -127 -124 -59 -284 -151 -301 -172 -7 -8 9 -51 52
-137 101 -205 174 -439 192 -614 3 -27 7 -53 10 -57 6 -11 19 -6 182 73 348
169 558 365 687 641 40 86 104 277 120 357 18 86 23 52 20 -110 -3 -96 -7
-186 -9 -200 -3 -14 -7 -45 -10 -70 -7 -49 -39 -184 -51 -214 -7 -17 -4 -18
46 -12 254 27 472 190 602 451 63 125 137 330 161 447 3 13 12 50 20 84 8 33
31 139 51 235 45 216 40 196 65 294 24 94 25 100 45 215 33 194 48 328 60 550
5 91 6 432 2 437 -2 1 -20 -21 -40 -49 -76 -110 -208 -233 -402 -373 -407
-295 -484 -387 -678 -815 -58 -130 -73 -159 -118 -232 -53 -85 -130 -168 -199
-213 -43 -28 -89 -55 -95 -55 -2 0 27 44 62 97 66 99 111 186 143 279 17 48
24 82 35 169 40 331 57 413 105 528 43 102 119 210 237 336 121 128 159 175
240 296 61 91 169 302 197 385 28 84 23 -44 -9 -225 -8 -44 -16 -91 -19 -105
-8 -50 -46 -187 -74 -272 l-28 -86 56 38 c138 94 245 223 290 352 17 50 23 93
26 208 4 129 7 147 26 167 64 68 315 82 428 23 50 -26 70 -54 94 -134 24 -78
54 -192 62 -229 2 -10 6 -27 9 -37 7 -22 9 -33 34 -170 25 -136 29 -164 37
-230 3 -30 7 -66 10 -80 26 -159 26 -662 -1 -875 -28 -221 -49 -313 -84 -370
-21 -35 -175 -243 -222 -300 -10 -11 -76 -94 -148 -185 -157 -196 -146 -182
-197 -245 -22 -27 -92 -113 -155 -190 -62 -77 -119 -146 -126 -153 -7 -7 -13
-16 -13 -20 0 -4 -15 -23 -33 -43 -37 -42 -73 -86 -95 -114 -27 -35 534 539
727 744 24 25 75 80 115 121 185 196 354 389 376 431 6 11 13 30 16 42 5 26 5
271 -1 372 -7 134 -17 279 -21 309 -2 17 -6 65 -9 106 -3 41 -7 86 -10 100 -2
14 -6 57 -10 95 -6 72 -11 120 -21 190 -2 22 -7 57 -9 78 -3 20 -7 56 -10 80
-5 40 -54 340 -59 362 -2 6 -6 28 -10 50 -12 63 -46 196 -61 240 -45 132 -77
177 -142 199 -46 15 -166 25 -228 19z m-1846 -810 c-13 -14 -35 -38 -49 -53
-14 -14 -63 -69 -110 -120 -47 -51 -94 -103 -105 -115 -11 -11 -67 -72 -125
-135 -57 -63 -111 -122 -120 -131 -8 -9 -51 -56 -95 -104 -44 -49 -100 -111
-126 -138 l-45 -50 -152 363 c-84 200 -151 365 -149 366 1 1 91 -60 200 -137
109 -76 203 -139 209 -139 6 0 64 33 127 73 64 39 124 77 133 82 17 10 224
139 356 222 37 23 69 42 71 43 3 0 -6 -12 -20 -27z"/>
</g>
</svg>
