<svg id="Layer_1" xmlns="http://www.w3.org/2000/svg" viewBox="0 0 512 512"><style>.st0{fill:#FFFFFF;}</style><path class="st0" d="M243.8 208c5.4 0 10.6.5 15.7 1.4l68-66.6v-20l38.7-38.6V69l-27.7-27.7h-17.3l-43 43 3.2 19.2S156 207.5 147 240c-64.3 61-63.5 76.8-56 134.6l64.3-63c-.7-4.5-1-9-1-13.8-.2-49.7 40-89.8 89.5-89.8zM145.4 332.7c-6.3 72.3 61.4 136.7 72 138 10.7 1 51.2-29.6 52.5-42 1-12.2-38.6-35-49.3-77.4-44.5 8.2-75.3-18.6-75.3-18.6zM240 263c-22 0-40.2 18-40.2 40.3s18 40.3 40.3 40.3 40.4-18 40.4-40.3-18-40.3-40.3-40.3zm0 64.2c-13 0-23.8-10.7-23.8-24 0-13 10.7-23.8 24-23.8s23.8 10.7 23.8 24c0 13-10.7 23.8-24 23.8z"/><path class="st0" d="M412.7 116.8l-31 31-3.4-3.6 31-31-7-6.7-36.2 36.3-8.5-8.6L393.8 98 380 84 330.4 134l9.6 9.6-75.3 75.2v.5c-6.7-1.8-13.7-2.7-21-2.7-44.7 0-81 36.3-81 81 0 10.8 2 21 5.8 30.3 8 5.2 23.7 13.3 45.8 14-12.6-8.3-21-22.6-21-38.8 0-25.8 21-46.7 46.8-46.7 10.2 0 19.5 3.2 27 8.7l97-92.8L378 186l52-52-17-17.2zM295.2 223l-3.2-3 74-74.2 3.3 3-74 74.3z"/></svg>