<svg id="Layer_1" xmlns="http://www.w3.org/2000/svg" viewBox="0 0 512 512"><style>.st0{fill:#FFFFFF;}</style><path class="st0" d="M432.5 77.4C411.2 60.2 297.2 88 153 184l-35.2-32-69 14.8L12 184c69.2 63 132 124.2 166.4 186.7 9.8-9.3 23.6-20.8 35.2-25.2 21-8 33-26 64.5-30.7 6 16.7 17.3 83.6-51.5 100.2 61.7-33.6 40.8-91.6 40.8-91.6-8.7 9.6-32.5 19.8-46.3 25.8-15.6 6.7-30.5 14.6-42 22.8 14.6 26.7 24 53.6 26.5 81 73.8-30.4 88.5-64 100.8-116.5 2.5 49.2-7.4 69.7-7.4 69.7 76-5.7 81-97.5 95-152.5S404.7 134 404.7 134c-28 43.4-75.2 51-100 99.2-18.4 35.8-22 61-55 75.8 0 0 22.2-26.6 25-50.4 5.2-42 4.6-61.5 36.6-93.4s44-72.2 44-72.2c1 32-14.7 74.6-14.7 74.6 45.4-29 36-58.2 37-72s48.3-15 53.2.7C464.2 202 444.8 288 441.5 298c-3.3 9.7-103.3 131-103.3 131S457 308.5 462.8 295.4c5.7-13-9-200.8-30.3-218zm-290.2 161L111 163.8l42.2 29.7 71-44.3-82 89.5z"/></svg>